<svg xmlns="http://www.w3.org/2000/svg" xmlns:xlink="http://www.w3.org/1999/xlink" width="500" zoomAndPan="magnify" viewBox="0 0 375 374.999991" height="500" preserveAspectRatio="xMidYMid meet" version="1.0"><defs><g/><clipPath id="c786005774"><path d="M 320 199 L 337 199 L 337 217 L 320 217 Z M 320 199 " clip-rule="nonzero"/></clipPath><clipPath id="e4ca580d9a"><path d="M 330.777344 199.808594 L 336.382812 205.085938 L 325.75 216.378906 L 320.144531 211.097656 Z M 330.777344 199.808594 " clip-rule="nonzero"/></clipPath><clipPath id="b1f37bf757"><path d="M 320.152344 175.285156 L 355.960938 175.285156 L 355.960938 211.097656 L 320.152344 211.097656 Z M 320.152344 175.285156 " clip-rule="nonzero"/></clipPath><clipPath id="5d31c3ceb9"><path d="M 338.058594 175.285156 C 328.167969 175.285156 320.152344 183.304688 320.152344 193.191406 C 320.152344 203.078125 328.167969 211.097656 338.058594 211.097656 C 347.945312 211.097656 355.960938 203.078125 355.960938 193.191406 C 355.960938 183.304688 347.945312 175.285156 338.058594 175.285156 Z M 338.058594 175.285156 " clip-rule="nonzero"/></clipPath><clipPath id="8cde261ae2"><path d="M 309 187.878906 L 349.054688 187.878906 L 349.054688 228 L 309 228 Z M 309 187.878906 " clip-rule="nonzero"/></clipPath></defs><rect x="-37.5" width="450" fill="#ffffff" y="-37.499999" height="449.999989" fill-opacity="1"/><rect x="-37.5" width="450" fill="#386641" y="-37.499999" height="449.999989" fill-opacity="1"/><g fill="#ffffff" fill-opacity="1"><g transform="translate(-2.372534, 223.524419)"><g><path d="M 61.390625 -54.03125 C 67.335938 -51.726562 72.039062 -48.4375 75.5 -44.15625 C 78.957031 -39.882812 80.6875 -34.914062 80.6875 -29.25 C 80.6875 -22.625 79.078125 -17.125 75.859375 -12.75 C 72.640625 -8.382812 68.410156 -5.164062 63.171875 -3.09375 C 57.941406 -1.03125 52.207031 0 45.96875 0 L 14.984375 0 L 14.984375 -104.1875 L 41.9375 -104.1875 C 52.59375 -104.1875 60.847656 -102 66.703125 -97.625 C 72.566406 -93.25 75.5 -86.691406 75.5 -77.953125 C 75.5 -72.472656 74.273438 -67.691406 71.828125 -63.609375 C 69.378906 -59.535156 65.898438 -56.34375 61.390625 -54.03125 Z M 28.96875 -58.640625 L 44.8125 -58.640625 C 50.1875 -58.640625 54.242188 -60.175781 56.984375 -63.25 C 59.722656 -66.332031 61.09375 -70.273438 61.09375 -75.078125 C 61.09375 -80.359375 59.457031 -84.296875 56.1875 -86.890625 C 52.925781 -89.484375 48.363281 -90.78125 42.5 -90.78125 L 28.96875 -90.78125 Z M 45.390625 -12.96875 C 51.441406 -12.96875 56.4375 -14.335938 60.375 -17.078125 C 64.3125 -19.816406 66.28125 -23.828125 66.28125 -29.109375 C 66.28125 -34.578125 64.140625 -38.609375 59.859375 -41.203125 C 55.585938 -43.796875 50.425781 -45.09375 44.375 -45.09375 L 28.96875 -45.09375 L 28.96875 -12.96875 Z M 45.390625 -12.96875 "/></g></g></g><g fill="#ffffff" fill-opacity="1"><g transform="translate(77.601644, 223.524419)"><g><path d="M 72.90625 -59.65625 L 72.90625 0 L 59.515625 0 L 59.515625 -9.796875 C 57.398438 -7.015625 54.320312 -4.445312 50.28125 -2.09375 C 46.25 0.257812 41.6875 1.4375 36.59375 1.4375 C 30.925781 1.4375 25.8125 0.210938 21.25 -2.234375 C 16.6875 -4.679688 13.082031 -8.257812 10.4375 -12.96875 C 7.800781 -17.675781 6.484375 -23.296875 6.484375 -29.828125 C 6.484375 -36.359375 7.851562 -42.046875 10.59375 -46.890625 C 13.332031 -51.742188 17.03125 -55.492188 21.6875 -58.140625 C 26.34375 -60.785156 31.503906 -62.109375 37.171875 -62.109375 C 42.265625 -62.109375 46.679688 -61 50.421875 -58.78125 C 54.171875 -56.570312 57.203125 -53.691406 59.515625 -50.140625 L 60.515625 -59.65625 Z M 40.203125 -9.65625 C 45.097656 -9.65625 49.296875 -11.023438 52.796875 -13.765625 C 56.304688 -16.503906 58.546875 -20.222656 59.515625 -24.921875 L 59.515625 -36.75 C 58.359375 -40.96875 55.953125 -44.398438 52.296875 -47.046875 C 48.648438 -49.691406 44.472656 -51.015625 39.765625 -51.015625 C 36.210938 -51.015625 32.921875 -50.148438 29.890625 -48.421875 C 26.867188 -46.691406 24.46875 -44.265625 22.6875 -41.140625 C 20.914062 -38.015625 20.03125 -34.484375 20.03125 -30.546875 C 20.03125 -26.703125 20.941406 -23.195312 22.765625 -20.03125 C 24.585938 -16.863281 27.035156 -14.34375 30.109375 -12.46875 C 33.191406 -10.59375 36.554688 -9.65625 40.203125 -9.65625 Z M 40.203125 -9.65625 "/></g></g></g><g fill="#ffffff" fill-opacity="1"><g transform="translate(152.964707, 223.524419)"><g><path d="M 48.703125 -61.953125 C 54.273438 -61.953125 58.882812 -60.296875 62.53125 -56.984375 C 66.1875 -53.671875 68.0625 -49.375 68.15625 -44.09375 L 68.15625 0 L 54.609375 0 L 54.609375 -39.484375 C 54.421875 -42.847656 53.410156 -45.488281 51.578125 -47.40625 C 49.753906 -49.320312 47.019531 -50.332031 43.375 -50.4375 C 38.09375 -50.4375 33.722656 -48.320312 30.265625 -44.09375 C 26.804688 -39.863281 25.078125 -34.484375 25.078125 -27.953125 L 25.078125 0 L 11.671875 0 L 11.671875 -59.65625 L 23.78125 -59.65625 L 24.640625 -48.125 C 26.753906 -52.445312 29.921875 -55.832031 34.140625 -58.28125 C 38.367188 -60.726562 43.222656 -61.953125 48.703125 -61.953125 Z M 48.703125 -61.953125 "/></g></g></g><g fill="#ffffff" fill-opacity="1"><g transform="translate(223.428449, 223.524419)"><g><path d="M 72.90625 -59.65625 L 72.90625 0 L 59.515625 0 L 59.515625 -9.796875 C 57.398438 -7.015625 54.320312 -4.445312 50.28125 -2.09375 C 46.25 0.257812 41.6875 1.4375 36.59375 1.4375 C 30.925781 1.4375 25.8125 0.210938 21.25 -2.234375 C 16.6875 -4.679688 13.082031 -8.257812 10.4375 -12.96875 C 7.800781 -17.675781 6.484375 -23.296875 6.484375 -29.828125 C 6.484375 -36.359375 7.851562 -42.046875 10.59375 -46.890625 C 13.332031 -51.742188 17.03125 -55.492188 21.6875 -58.140625 C 26.34375 -60.785156 31.503906 -62.109375 37.171875 -62.109375 C 42.265625 -62.109375 46.679688 -61 50.421875 -58.78125 C 54.171875 -56.570312 57.203125 -53.691406 59.515625 -50.140625 L 60.515625 -59.65625 Z M 40.203125 -9.65625 C 45.097656 -9.65625 49.296875 -11.023438 52.796875 -13.765625 C 56.304688 -16.503906 58.546875 -20.222656 59.515625 -24.921875 L 59.515625 -36.75 C 58.359375 -40.96875 55.953125 -44.398438 52.296875 -47.046875 C 48.648438 -49.691406 44.472656 -51.015625 39.765625 -51.015625 C 36.210938 -51.015625 32.921875 -50.148438 29.890625 -48.421875 C 26.867188 -46.691406 24.46875 -44.265625 22.6875 -41.140625 C 20.914062 -38.015625 20.03125 -34.484375 20.03125 -30.546875 C 20.03125 -26.703125 20.941406 -23.195312 22.765625 -20.03125 C 24.585938 -16.863281 27.035156 -14.34375 30.109375 -12.46875 C 33.191406 -10.59375 36.554688 -9.65625 40.203125 -9.65625 Z M 40.203125 -9.65625 "/></g></g></g><g fill="#ffffff" fill-opacity="1"><g transform="translate(298.791512, 223.524419)"><g><path d="M 6.484375 -30.40625 C 6.484375 -36.257812 7.898438 -41.613281 10.734375 -46.46875 C 13.566406 -51.320312 17.503906 -55.140625 22.546875 -57.921875 C 27.585938 -60.710938 33.28125 -62.109375 39.625 -62.109375 C 45.96875 -62.109375 51.613281 -60.710938 56.5625 -57.921875 C 61.507812 -55.140625 65.347656 -51.347656 68.078125 -46.546875 C 70.816406 -41.742188 72.1875 -36.363281 72.1875 -30.40625 C 72.1875 -24.445312 70.816406 -19.039062 68.078125 -14.1875 C 65.347656 -9.34375 61.484375 -5.523438 56.484375 -2.734375 C 51.484375 0.046875 45.769531 1.4375 39.34375 1.4375 C 33.09375 1.4375 27.46875 0.117188 22.46875 -2.515625 C 17.476562 -5.160156 13.566406 -8.882812 10.734375 -13.6875 C 7.898438 -18.488281 6.484375 -24.0625 6.484375 -30.40625 Z M 20.03125 -30.265625 C 20.03125 -26.515625 20.867188 -23.050781 22.546875 -19.875 C 24.234375 -16.707031 26.539062 -14.210938 29.46875 -12.390625 C 32.394531 -10.566406 35.632812 -9.65625 39.1875 -9.65625 C 44.757812 -9.65625 49.367188 -11.625 53.015625 -15.5625 C 56.671875 -19.5 58.5 -24.398438 58.5 -30.265625 C 58.5 -36.117188 56.671875 -41.039062 53.015625 -45.03125 C 49.367188 -49.019531 44.757812 -51.015625 39.1875 -51.015625 C 35.539062 -51.015625 32.273438 -50.078125 29.390625 -48.203125 C 26.515625 -46.328125 24.234375 -43.800781 22.546875 -40.625 C 20.867188 -37.457031 20.03125 -34.003906 20.03125 -30.265625 Z M 20.03125 -30.265625 "/></g></g></g><g fill="#8cc342" fill-opacity="0.4"><g transform="translate(118.086827, 158.664168)"><g><path d="M 0.375 -30.609375 L 0.375 -38.265625 L 27.265625 -38.265625 L 27.265625 -30.609375 L 18.171875 -30.609375 L 18.171875 0 L 9.453125 0 L 9.453125 -30.609375 Z M 0.375 -30.609375 "/></g></g></g><g fill="#8cc342" fill-opacity="0.4"><g transform="translate(150.314568, 158.664168)"><g><path d="M 11.5 -38.265625 L 11.5 0 L 2.78125 0 L 2.78125 -38.265625 Z M 11.5 -38.265625 "/></g></g></g><g fill="#8cc342" fill-opacity="0.4"><g transform="translate(169.187763, 158.664168)"><g><path d="M 37.609375 0 L 25.59375 0 L 11.5 -16.234375 L 11.5 0 L 2.78125 0 L 2.78125 -38.265625 L 11.5 -38.265625 L 11.5 -22.625 L 24.625 -38.265625 L 35.203125 -38.265625 L 19.796875 -20.125 Z M 37.609375 0 "/></g></g></g><g fill="#8cc342" fill-opacity="0.4"><g transform="translate(210.272169, 158.664168)"><g><path d="M 11.5 -15.34375 L 11.5 0 L 2.78125 0 L 2.78125 -38.265625 L 11.5 -38.265625 L 11.5 -23 L 23.84375 -23 L 23.84375 -38.265625 L 32.5625 -38.265625 L 32.5625 0 L 23.84375 0 L 23.84375 -15.34375 Z M 11.5 -15.34375 "/></g></g></g><g fill="#8cc342" fill-opacity="0.4"><g transform="translate(250.197314, 158.664168)"><g><path d="M 22.21875 -38.265625 L 37.65625 0 L 28.28125 0 L 25.453125 -7.65625 L 10.890625 -7.65625 L 8.0625 0 L -1.296875 0 L 14.140625 -38.265625 Z M 22.484375 -15.296875 L 18.21875 -26.4375 L 18.125 -26.4375 L 13.859375 -15.296875 Z M 22.484375 -15.296875 "/></g></g></g><g fill="#ff0000" fill-opacity="1"><g transform="translate(118.086827, 158.664168)"><g><path d="M 0.375 -30.609375 L 0.375 -38.265625 L 27.265625 -38.265625 L 27.265625 -30.609375 L 18.171875 -30.609375 L 18.171875 0 L 9.453125 0 L 9.453125 -30.609375 Z M 0.375 -30.609375 "/></g></g></g><g fill="#ff0000" fill-opacity="1"><g transform="translate(150.314568, 158.664168)"><g><path d="M 11.5 -38.265625 L 11.5 0 L 2.78125 0 L 2.78125 -38.265625 Z M 11.5 -38.265625 "/></g></g></g><g fill="#ff0000" fill-opacity="1"><g transform="translate(169.187763, 158.664168)"><g><path d="M 37.609375 0 L 25.59375 0 L 11.5 -16.234375 L 11.5 0 L 2.78125 0 L 2.78125 -38.265625 L 11.5 -38.265625 L 11.5 -22.625 L 24.625 -38.265625 L 35.203125 -38.265625 L 19.796875 -20.125 Z M 37.609375 0 "/></g></g></g><g fill="#ff0000" fill-opacity="1"><g transform="translate(210.272169, 158.664168)"><g><path d="M 11.5 -15.34375 L 11.5 0 L 2.78125 0 L 2.78125 -38.265625 L 11.5 -38.265625 L 11.5 -23 L 23.84375 -23 L 23.84375 -38.265625 L 32.5625 -38.265625 L 32.5625 0 L 23.84375 0 L 23.84375 -15.34375 Z M 11.5 -15.34375 "/></g></g></g><g fill="#ff0000" fill-opacity="1"><g transform="translate(250.197314, 158.664168)"><g><path d="M 22.21875 -38.265625 L 37.65625 0 L 28.28125 0 L 25.453125 -7.65625 L 10.890625 -7.65625 L 8.0625 0 L -1.296875 0 L 14.140625 -38.265625 Z M 22.484375 -15.296875 L 18.21875 -26.4375 L 18.125 -26.4375 L 13.859375 -15.296875 Z M 22.484375 -15.296875 "/></g></g></g><g clip-path="url(#c786005774)"><g clip-path="url(#e4ca580d9a)"><path fill="#ffffff" d="M 330.777344 199.808594 L 336.382812 205.085938 L 325.761719 216.367188 L 320.152344 211.089844 Z M 330.777344 199.808594 " fill-opacity="1" fill-rule="nonzero"/></g></g><g clip-path="url(#b1f37bf757)"><g clip-path="url(#5d31c3ceb9)"><path fill="#8cc342" d="M 320.152344 175.285156 L 355.960938 175.285156 L 355.960938 211.097656 L 320.152344 211.097656 Z M 320.152344 175.285156 " fill-opacity="1" fill-rule="nonzero"/></g></g><g clip-path="url(#8cde261ae2)"><path fill="#000000" d="M 339.421875 207.515625 C 341.800781 205.140625 349.039062 197.269531 349.039062 197.269531 C 349.039062 197.269531 348.523438 196.488281 347.28125 195.058594 L 339.304688 203.035156 C 338.859375 203.480469 338.140625 203.480469 337.699219 203.035156 C 337.253906 202.59375 337.253906 201.875 337.699219 201.429688 L 345.75 193.378906 C 345.433594 193.042969 345.085938 192.691406 344.714844 192.3125 C 344.300781 191.898438 343.914062 191.527344 343.550781 191.183594 L 335.574219 199.160156 C 335.125 199.605469 334.410156 199.605469 333.972656 199.160156 C 333.523438 198.714844 333.523438 198 333.96875 197.554688 L 341.867188 189.65625 C 340.46875 188.441406 339.6875 187.917969 339.6875 187.917969 C 339.6875 187.917969 333.035156 193.894531 329.414062 197.507812 C 325.378906 201.546875 329.039062 205.261719 327.449219 206.851562 C 325.863281 208.433594 318.589844 214.328125 314.875 218.046875 C 308.058594 224.855469 308.800781 225.917969 309.902344 227.023438 C 311.007812 228.132812 312.066406 228.867188 318.878906 222.054688 C 322.597656 218.339844 328.488281 211.066406 330.074219 209.480469 C 331.664062 207.890625 335.324219 211.605469 339.421875 207.515625 Z M 339.421875 207.515625 " fill-opacity="1" fill-rule="nonzero"/></g></svg>